<svg height="718" width="720" xmlns="http://www.w3.org/2000/svg">
<rect height="718" fill="#555" width="720"></rect>
<text fill="#7f7" font-family="Courier New" font-size="12" xml:space="preserve">
<tspan x="10" y="26">7 megabytes installed</tspan>
<tspan x="10" y="42"></tspan>
<tspan x="10" y="58">node_modules</tspan>
<tspan x="10" y="74">└─┬ nsp@2.6.3 </tspan>
<tspan x="10" y="90">  ├─┬ chalk@1.1.3 </tspan>
<tspan x="10" y="106">  │ ├── ansi-styles@2.2.1 </tspan>
<tspan x="10" y="122">  │ ├── escape-string-regexp@1.0.5 </tspan>
<tspan x="10" y="138">  │ ├─┬ has-ansi@2.0.0 </tspan>
<tspan x="10" y="154">  │ │ └── ansi-regex@2.0.0 </tspan>
<tspan x="10" y="170">  │ ├─┬ strip-ansi@3.0.1 </tspan>
<tspan x="10" y="186">  │ │ └── ansi-regex@2.0.0 </tspan>
<tspan x="10" y="202">  │ └── supports-color@2.0.0 </tspan>
<tspan x="10" y="218">  ├─┬ cli-table@0.3.1 </tspan>
<tspan x="10" y="234">  │ └── colors@1.0.3 </tspan>
<tspan x="10" y="250">  ├── cvss@1.0.1 </tspan>
<tspan x="10" y="266">  ├─┬ https-proxy-agent@1.0.0 </tspan>
<tspan x="10" y="282">  │ ├─┬ agent-base@2.0.1 </tspan>
<tspan x="10" y="298">  │ │ └── semver@5.0.3 </tspan>
<tspan x="10" y="314">  │ ├─┬ debug@2.2.0 </tspan>
<tspan x="10" y="330">  │ │ └── ms@0.7.1 </tspan>
<tspan x="10" y="346">  │ └── extend@3.0.0 </tspan>
<tspan x="10" y="362">  ├─┬ joi@6.10.1 </tspan>
<tspan x="10" y="378">  │ ├── hoek@2.16.3 </tspan>
<tspan x="10" y="394">  │ ├── isemail@1.2.0 </tspan>
<tspan x="10" y="410">  │ ├── moment@2.12.0 </tspan>
<tspan x="10" y="426">  │ └── topo@1.1.0 </tspan>
<tspan x="10" y="442">  ├── nodesecurity-npm-utils@5.0.0 </tspan>
<tspan x="10" y="458">  ├── path-is-absolute@1.0.0 </tspan>
<tspan x="10" y="474">  ├─┬ rc@1.1.6 </tspan>
<tspan x="10" y="490">  │ ├── deep-extend@0.4.1 </tspan>
<tspan x="10" y="506">  │ ├── ini@1.3.4 </tspan>
<tspan x="10" y="522">  │ ├── minimist@1.2.0 </tspan>
<tspan x="10" y="538">  │ └── strip-json-comments@1.0.4 </tspan>
<tspan x="10" y="554">  ├── semver@5.1.0 </tspan>
<tspan x="10" y="570">  ├─┬ subcommand@2.0.3 </tspan>
<tspan x="10" y="586">  │ ├── cliclopts@1.1.1 </tspan>
<tspan x="10" y="602">  │ ├─┬ debug@2.2.0 </tspan>
<tspan x="10" y="618">  │ │ └── ms@0.7.1 </tspan>
<tspan x="10" y="634">  │ ├── minimist@1.2.0 </tspan>
<tspan x="10" y="650">  │ └── xtend@4.0.1 </tspan>
<tspan x="10" y="666">  └─┬ wreck@6.3.0 </tspan>
<tspan x="10" y="682">    ├── boom@2.10.1 </tspan>
<tspan x="10" y="698">    └── hoek@2.16.3</tspan>
</text>
</svg>
